<svg 
	height="200" width="300"
	xmlns="http://www.w3.org/2000/svg">
	<rect height="100%" width="100%" fill="skyblue" />
	<line x1="50%" x2="50%" y1="0%" y2="100%" stroke="black" stroke-width="4" />
	<circle cx="75" cy="62" r="20" fill="whitesmoke"  />
	<circle cx="55" cy="55" r="16" fill="whitesmoke" />
	<circle cx="55" cy="62" r="16" fill="whitesmoke" />

	<circle cx="20" cy="100" r="14" fill="whitesmoke" />
	<circle cx="30" cy="110" r="12" fill="whitesmoke" />
	<circle cx="35" cy="105" r="14" fill="whitesmoke" />

	<circle cx="110" cy="110" r="14" fill="whitesmoke" />
	<circle cx="120" cy="120" r="12" fill="whitesmoke" />
	<circle cx="125" cy="115" r="14" fill="whitesmoke" />

	<circle cx="175" cy="40" r="12" fill="whitesmoke" />
	<circle cx="185" cy="50" r="12" fill="whitesmoke" />
	<circle cx="190" cy="45" r="14" fill="whitesmoke" />

	<circle cx="250" cy="55" r="12" fill="whitesmoke" />
	<circle cx="260" cy="65" r="12" fill="whitesmoke" />
	<circle cx="265" cy="60" r="14" fill="whitesmoke" />

	<circle cx="200" cy="80" r="12" fill="whitesmoke" />
	<circle cx="210" cy="90" r="12" fill="whitesmoke" />
	<circle cx="215" cy="85" r="14" fill="whitesmoke" />
	
</svg>